<?xml version="1.0" encoding="UTF-8" standalone="no"?>
<!-- Created with Inkscape (http://www.inkscape.org/) -->

<svg
   width="144"
   height="144"
   viewBox="0 0 38.1 38.1"
   version="1.1"
   id="svg158"
   xml:space="preserve"
   inkscape:export-filename="decodeIcon@2x.png"
   inkscape:export-xdpi="96"
   inkscape:export-ydpi="96"
   inkscape:version="1.2.2 (732a01da63, 2022-12-09)"
   sodipodi:docname="Icons.svg"
   xmlns:inkscape="http://www.inkscape.org/namespaces/inkscape"
   xmlns:sodipodi="http://sodipodi.sourceforge.net/DTD/sodipodi-0.dtd"
   xmlns="http://www.w3.org/2000/svg"
   xmlns:svg="http://www.w3.org/2000/svg"><sodipodi:namedview
     id="namedview160"
     pagecolor="#505050"
     bordercolor="#eeeeee"
     borderopacity="1"
     inkscape:showpageshadow="0"
     inkscape:pageopacity="0"
     inkscape:pagecheckerboard="0"
     inkscape:deskcolor="#505050"
     inkscape:document-units="mm"
     showgrid="false"
     inkscape:zoom="10.35098"
     inkscape:cx="12.607502"
     inkscape:cy="69.800154"
     inkscape:window-width="3840"
     inkscape:window-height="2071"
     inkscape:window-x="635"
     inkscape:window-y="-9"
     inkscape:window-maximized="1"
     inkscape:current-layer="layer4" /><defs
     id="defs155" /><g
     inkscape:label="Layer 1"
     inkscape:groupmode="layer"
     id="layer1"
     style="display:none"
     sodipodi:insensitive="true"><g
       style="display:inline;fill:#ffffff"
       id="g174"
       transform="matrix(1.5873747,0,0,1.5873747,0.0201484,0.07127078)"><path
         d="M 0,0 H 24 V 24 H 0 Z"
         fill="none"
         id="path162" /><path
         d="m 15,7 v 4 h 1 v 2 H 13 V 5 h 2 L 12,1 9,5 h 2 v 8 H 8 V 10.93 C 8.7,10.56 9.2,9.85 9.2,9 9.2,7.79 8.21,6.8 7,6.8 5.79,6.8 4.8,7.79 4.8,9 4.8,9.85 5.3,10.56 6,10.93 V 13 c 0,1.11 0.89,2 2,2 h 3 v 3.05 c -0.71,0.37 -1.2,1.1 -1.2,1.95 0,1.22 0.99,2.2 2.2,2.2 1.21,0 2.2,-0.98 2.2,-2.2 0,-0.85 -0.49,-1.58 -1.2,-1.95 V 15 h 3 c 1.11,0 2,-0.89 2,-2 v -2 h 1 V 7 Z"
         id="path164" /></g></g><g
     inkscape:groupmode="layer"
     id="layer2"
     inkscape:label="Layer 2"
     style="display:none"><g
       style="display:inline;fill:#ffffff"
       id="g242"
       transform="matrix(1.5841796,0,0,1.5841796,0.04570956,0.0201484)"><rect
         fill="none"
         height="24"
         width="24"
         id="rect230"
         x="0"
         y="0" /><path
         d="m 15,8 h 4 v 4 h -1 v 2 c 0,0.34 -0.08,0.66 -0.23,0.94 L 16,13.17 V 12 h -1 z m -4,0.17 2,2 V 6 h 2 L 12,2 9,6 h 2 z M 13,16 v 2.28 c 0.6,0.34 1,0.98 1,1.72 0,1.1 -0.9,2 -2,2 -1.1,0 -2,-0.9 -2,-2 0,-0.74 0.4,-1.37 1,-1.72 V 16 H 8 C 6.89,16 6,15.11 6,14 V 11.72 C 5.4,11.38 5,10.74 5,10 5,9.41 5.26,8.87 5.68,8.51 L 1.39,4.22 2.8,2.81 21.18,21.19 19.77,22.6 13.17,16 Z M 11,14 V 13.83 L 8.49,11.32 C 8.35,11.48 8.18,11.61 8,11.72 V 14 Z"
         id="path232" /></g></g><g
     inkscape:groupmode="layer"
     id="layer3"
     inkscape:label="Layer 3"
     style="display:none"><g
       style="fill:#ffffff"
       id="g261"
       transform="matrix(1.5863097,0,0,1.5863097,0.02014845,0.04570959)"><path
         d="M 0,0 H 24 V 24 H 0 Z"
         fill="none"
         id="path249" /><path
         d="M 15,9 H 9 C 8.45,9 8,9.45 8,10 v 12 c 0,0.55 0.45,1 1,1 h 6 c 0.55,0 1,-0.45 1,-1 V 10 C 16,9.45 15.55,9 15,9 Z m -3,6 c -1.1,0 -2,-0.9 -2,-2 0,-1.1 0.9,-2 2,-2 1.1,0 2,0.9 2,2 0,1.1 -0.9,2 -2,2 z M 7.05,6.05 8.46,7.46 C 9.37,6.56 10.62,6 12,6 c 1.38,0 2.63,0.56 3.54,1.46 L 16.95,6.05 C 15.68,4.78 13.93,4 12,4 10.07,4 8.32,4.78 7.05,6.05 Z M 12,0 C 8.96,0 6.21,1.23 4.22,3.22 L 5.63,4.63 C 7.26,3.01 9.51,2 12,2 c 2.49,0 4.74,1.01 6.36,2.64 L 19.77,3.23 C 17.79,1.23 15.04,0 12,0 Z"
         id="path251" /></g><text
       xml:space="preserve"
       style="font-style:normal;font-variant:normal;font-weight:bold;font-stretch:normal;font-size:14.1111px;font-family:Tahoma;-inkscape-font-specification:'Tahoma Bold';display:none;fill:#000000;stroke-width:0.264583"
       x="14.64656"
       y="35.274437"
       id="text317"><tspan
         sodipodi:role="line"
         id="tspan315"
         style="font-style:normal;font-variant:normal;font-weight:bold;font-stretch:normal;font-size:14.1111px;font-family:Tahoma;-inkscape-font-specification:'Tahoma Bold';fill:#000000;stroke-width:0.264583"
         x="0"
         y="0">1</tspan></text></g><g
     inkscape:groupmode="layer"
     id="layer4"
     inkscape:label="Layer 4"><g
       style="fill:#ffffff"
       id="g160"
       transform="scale(1.5875)"><path
         d="M 0,0 H 24 V 24 H 0 Z"
         fill="none"
         id="path148" /><path
         d="M 15.5,14 H 14.71 L 14.43,13.73 C 15.41,12.59 16,11.11 16,9.5 16,5.91 13.09,3 9.5,3 5.91,3 3,5.91 3,9.5 3,13.09 5.91,16 9.5,16 c 1.61,0 3.09,-0.59 4.23,-1.57 L 14,14.71 v 0.79 l 5,4.99 1.49,-1.49 z m -6,0 C 7.01,14 5,11.99 5,9.5 5,7.01 7.01,5 9.5,5 11.99,5 14,7.01 14,9.5 14,11.99 11.99,14 9.5,14 Z"
         id="path150" /></g></g></svg>
